<svg width="34" height="34" viewBox="0 0 34 34" fill="none" xmlns="http://www.w3.org/2000/svg">
<path d="M21.25 20.3263C21.25 24.7917 19.3474 31.1667 17 31.1667C14.6526 31.1667 12.75 24.7917 12.75 20.3263C12.75 17.7069 14.6526 15.5833 17 15.5833C19.3474 15.5833 21.25 17.7069 21.25 20.3263Z" stroke="#EFA021" stroke-width="4"/>
<path d="M8.13025 12.0417C9.90817 12.0417 14.1667 13.6276 14.1667 15.5834C14.1667 17.5391 9.90817 19.125 8.13025 19.125C6.35233 19.125 4.25 17.5391 4.25 15.5834C4.25 13.6276 6.35233 12.0417 8.13025 12.0417ZM25.8697 12.0417C24.0918 12.0417 19.8333 13.6276 19.8333 15.5834C19.8333 17.5391 24.0918 19.125 25.8697 19.125C27.6477 19.125 29.75 17.5391 29.75 15.5834C29.75 13.6276 27.6477 12.0417 25.8697 12.0417Z" stroke="#EFA021" stroke-width="4"/>
<path d="M20.5417 9.91667C20.5417 7.96066 18.956 6.375 17 6.375C15.044 6.375 13.4583 7.96066 13.4583 9.91667V12.0417C13.4583 13.9977 15.044 15.5833 17 15.5833C18.956 15.5833 20.5417 13.9977 20.5417 12.0417V9.91667Z" stroke="#EFA021" stroke-width="4"/>
<path d="M19.8333 7.08334C19.8333 5.95617 20.2811 4.87517 21.0781 4.07814C21.8751 3.28111 22.9562 2.83334 24.0833 2.83334M14.875 7.08334C14.875 4.73593 12.6551 2.83334 9.91666 2.83334" stroke="#EFA021" stroke-width="4" stroke-linecap="round"/>
</svg>
